999
"DXF R12 Output" (www.mydxf.blogspot.com)
 0 
SECTION
 2 
HEADER
 9 
$ACADVER
 1 
AC1009
 9 
$EXTMIN
 10 
 0 
 20 
 0 
 9 
$EXTMAX
 10 
 8.5 
 20 
 11 
 0 
ENDSEC
 0 
SECTION
 2 
ENTITIES
0
LINE
8
Layer 1
10
0.846666
20
158.714000
11
-0.846666
21
157.020000
0
LINE
8
Layer 1
10
0.000000
20
159.278000
11
0.000000
21
156.456000
0
LINE
8
Layer 1
10
2.257780
20
156.738000
11
1.128890
21
155.609110
0
LINE
8
Layer 1
10
1.693330
20
157.303000
11
0.564440
21
156.174110
0
LINE
8
Layer 1
10
1.128890
20
157.867000
11
0.000000
21
156.738110
0
LINE
8
0
10
40.221200
20
41.182700
11
40.111657
21
42.018764
0
LINE
8
0
10
40.111657
20
42.018764
11
39.794370
21
42.785090
0
LINE
8
0
10
39.794370
20
42.785090
11
39.290908
21
43.444220
0
LINE
8
0
10
39.290908
20
43.444220
11
38.622838
21
43.958695
0
LINE
8
0
10
38.622838
20
43.958695
11
37.843633
21
44.280941
0
LINE
8
0
10
37.843633
20
44.280941
11
37.021205
21
44.388357
0
LINE
8
0
10
37.021205
20
44.388357
11
36.198777
21
44.280941
0
LINE
8
0
10
36.198777
20
44.280941
11
35.419572
21
43.958695
0
LINE
8
0
10
35.419572
20
43.958695
11
34.751502
21
43.444220
0
LINE
8
0
10
34.751502
20
43.444220
11
34.248040
21
42.785090
0
LINE
8
0
10
34.248040
20
42.785090
11
33.930753
21
42.018764
0
LINE
8
0
10
33.930753
20
42.018764
11
33.821210
21
41.182700
0
LINE
8
0
10
33.821210
20
41.182700
11
33.930753
21
40.346636
0
LINE
8
0
10
33.930753
20
40.346636
11
34.248040
21
39.580310
0
LINE
8
0
10
34.248040
20
39.580310
11
34.751502
21
38.921180
0
LINE
8
0
10
34.751502
20
38.921180
11
35.419572
21
38.406705
0
LINE
8
0
10
35.419572
20
38.406705
11
36.198777
21
38.084459
0
LINE
8
0
10
36.198777
20
38.084459
11
37.021205
21
37.977043
0
LINE
8
0
10
37.021205
20
37.977043
11
37.843633
21
38.084459
0
LINE
8
0
10
37.843633
20
38.084459
11
38.622838
21
38.406705
0
LINE
8
0
10
38.622838
20
38.406705
11
39.290908
21
38.921180
0
LINE
8
0
10
39.290908
20
38.921180
11
39.794370
21
39.580310
0
LINE
8
0
10
39.794370
20
39.580310
11
40.111657
21
40.346636
0
LINE
8
0
10
40.111657
20
40.346636
11
40.221200
21
41.182700
0
LINE
8
0
10
40.221200
20
41.182700
11
40.221200
21
41.182700
0
LINE
8
0
10
71.687800
20
33.716100
11
71.444215
21
32.491513
0
LINE
8
0
10
71.444215
20
32.491513
11
70.750542
21
31.453358
0
LINE
8
0
10
70.750542
20
31.453358
11
69.712387
21
30.759685
0
LINE
8
0
10
69.712387
20
30.759685
11
68.487800
21
30.516100
0
LINE
8
0
10
68.487800
20
30.516100
11
5.554520
21
30.516100
0
LINE
8
0
10
5.554520
20
30.516100
11
4.329933
21
30.759685
0
LINE
8
0
10
4.329933
20
30.759685
11
3.291778
21
31.453358
0
LINE
8
0
10
3.291778
20
31.453358
11
2.598105
21
32.491513
0
LINE
8
0
10
2.598105
20
32.491513
11
2.354520
21
33.716100
0
LINE
8
0
10
2.354520
20
33.716100
11
2.354520
21
72.378400
0
LINE
8
0
10
2.354520
20
72.378400
11
2.451052
21
73.158440
0
LINE
8
0
10
2.451052
20
73.158440
11
2.734817
21
73.891420
0
LINE
8
0
10
2.734817
20
73.891420
11
23.771600
21
113.096000
0
LINE
8
0
10
23.771600
20
113.096000
11
24.281555
21
113.797821
0
LINE
8
0
10
24.281555
20
113.797821
11
24.948397
21
114.329018
0
LINE
8
0
10
24.948397
20
114.329018
11
25.731766
21
114.665443
0
LINE
8
0
10
25.731766
20
114.665443
11
26.591300
21
114.782950
0
LINE
8
0
10
26.591300
20
114.782950
11
37.325700
21
114.783000
0
LINE
8
0
10
37.325700
20
114.783000
11
38.156086
21
114.950647
0
LINE
8
0
10
38.156086
20
114.950647
11
38.834189
21
115.407834
0
LINE
8
0
10
38.834189
20
115.407834
11
39.291379
21
116.085935
0
LINE
8
0
10
39.291379
20
116.085935
11
39.459030
21
116.916320
0
LINE
8
0
10
39.459030
20
116.916320
11
39.459100
21
141.613000
0
LINE
8
0
10
39.459100
20
141.613000
11
39.555632
21
142.393040
0
LINE
8
0
10
39.555632
20
142.393040
11
39.839397
21
143.126020
0
LINE
8
0
10
39.839397
20
143.126020
11
43.550587
21
150.042240
0
LINE
8
0
10
43.550587
20
150.042240
11
44.133443
21
150.965807
0
LINE
8
0
10
44.133443
20
150.965807
11
44.829434
21
151.786535
0
LINE
8
0
10
44.829434
20
151.786535
11
46.506831
21
153.088387
0
LINE
8
0
10
46.506831
20
153.088387
11
48.474800
21
153.885618
0
LINE
8
0
10
48.474800
20
153.885618
11
49.534005
21
154.075571
0
LINE
8
0
10
49.534005
20
154.075571
11
50.625361
21
154.116053
0
LINE
8
0
10
50.625361
20
154.116053
11
51.711583
21
154.002827
0
LINE
8
0
10
51.711583
20
154.002827
11
52.755750
21
153.742609
0
LINE
8
0
10
52.755750
20
153.742609
11
54.666126
21
152.815818
0
LINE
8
0
10
54.666126
20
152.815818
11
56.252901
21
151.404923
0
LINE
8
0
10
56.252901
20
151.404923
11
56.892567
21
150.539576
0
LINE
8
0
10
56.892567
20
150.539576
11
57.412487
21
149.579170
0
LINE
8
0
10
57.412487
20
149.579170
11
60.382687
21
143.028770
0
LINE
8
0
10
60.382687
20
143.028770
11
60.668298
21
141.707270
0
LINE
8
0
10
60.668298
20
141.707270
11
60.668300
21
116.891000
0
LINE
8
0
10
60.668300
20
116.891000
11
60.835951
21
116.060615
0
LINE
8
0
10
60.835951
20
116.060615
11
61.293141
21
115.382514
0
LINE
8
0
10
61.293141
20
115.382514
11
61.971244
21
114.925327
0
LINE
8
0
10
61.971244
20
114.925327
11
62.801630
21
114.757680
0
LINE
8
0
10
62.801630
20
114.757680
11
70.897200
21
114.758000
0
LINE
8
0
10
70.897200
20
114.758000
11
71.821519
21
114.621735
0
LINE
8
0
10
71.821519
20
114.621735
11
72.651343
21
114.234368
0
LINE
8
0
10
72.651343
20
114.234368
11
73.337648
21
113.628029
0
LINE
8
0
10
73.337648
20
113.628029
11
73.831410
21
112.834850
0
LINE
8
0
10
73.831410
20
112.834850
11
84.249010
21
88.895150
0
LINE
8
0
10
84.249010
20
88.895150
11
84.887015
21
87.107350
0
LINE
8
0
10
84.887015
20
87.107350
11
85.040658
21
85.246094
0
LINE
8
0
10
85.040658
20
85.246094
11
84.714410
21
83.407224
0
LINE
8
0
10
84.714410
20
83.407224
11
83.912742
21
81.686583
0
LINE
8
0
10
83.912742
20
81.686583
11
82.692452
21
80.232564
0
LINE
8
0
10
82.692452
20
80.232564
11
81.163999
21
79.159384
0
LINE
8
0
10
81.163999
20
79.159384
11
79.412348
21
78.511621
0
LINE
8
0
10
79.412348
20
78.511621
11
77.522460
21
78.333850
0
LINE
8
0
10
77.522460
20
78.333850
11
74.887750
21
78.333822
0
LINE
8
0
10
74.887750
20
78.333822
11
73.642175
21
78.082341
0
LINE
8
0
10
73.642175
20
78.082341
11
72.625028
21
77.396553
0
LINE
8
0
10
72.625028
20
77.396553
11
71.939249
21
76.379399
0
LINE
8
0
10
71.939249
20
76.379399
11
71.687780
21
75.133822
0
LINE
8
0
10
71.687780
20
75.133822
11
71.687800
21
33.716100
0
LINE
8
0
10
16.221200
20
62.516000
11
16.110430
21
63.350936
0
LINE
8
0
10
16.110430
20
63.350936
11
15.792481
21
64.116000
0
LINE
8
0
10
15.792481
20
64.116000
11
15.288891
21
64.773884
0
LINE
8
0
10
15.288891
20
64.773884
11
14.621200
21
65.287281
0
LINE
8
0
10
14.621200
20
65.287281
11
13.842739
21
65.608820
0
LINE
8
0
10
13.842739
20
65.608820
11
13.021200
21
65.716000
0
LINE
8
0
10
13.021200
20
65.716000
11
12.199661
21
65.608820
0
LINE
8
0
10
12.199661
20
65.608820
11
11.421200
21
65.287281
0
LINE
8
0
10
11.421200
20
65.287281
11
10.753509
21
64.773884
0
LINE
8
0
10
10.753509
20
64.773884
11
10.249919
21
64.116000
0
LINE
8
0
10
10.249919
20
64.116000
11
9.931970
21
63.350936
0
LINE
8
0
10
9.931970
20
63.350936
11
9.821200
21
62.516000
0
LINE
8
0
10
9.821200
20
62.516000
11
9.931970
21
61.681064
0
LINE
8
0
10
9.931970
20
61.681064
11
10.249919
21
60.916000
0
LINE
8
0
10
10.249919
20
60.916000
11
10.753509
21
60.258116
0
LINE
8
0
10
10.753509
20
60.258116
11
11.421200
21
59.744719
0
LINE
8
0
10
11.421200
20
59.744719
11
12.199661
21
59.423180
0
LINE
8
0
10
12.199661
20
59.423180
11
13.021200
21
59.316000
0
LINE
8
0
10
13.021200
20
59.316000
11
13.842739
21
59.423180
0
LINE
8
0
10
13.842739
20
59.423180
11
14.621200
21
59.744719
0
LINE
8
0
10
14.621200
20
59.744719
11
15.288891
21
60.258116
0
LINE
8
0
10
15.288891
20
60.258116
11
15.792481
21
60.916000
0
LINE
8
0
10
15.792481
20
60.916000
11
16.110430
21
61.681064
0
LINE
8
0
10
16.110430
20
61.681064
11
16.221200
21
62.516000
0
LINE
8
0
10
16.221200
20
62.516000
11
16.221200
21
62.516000
0
LINE
8
0
10
53.033700
20
146.384000
11
52.941389
21
147.079779
0
LINE
8
0
10
52.941389
20
147.079779
11
52.676431
21
147.717330
0
LINE
8
0
10
52.676431
20
147.717330
11
52.256773
21
148.265565
0
LINE
8
0
10
52.256773
20
148.265565
11
51.700365
21
148.693395
0
LINE
8
0
10
51.700365
20
148.693395
11
51.051649
21
148.961344
0
LINE
8
0
10
51.051649
20
148.961344
11
50.367035
21
149.050660
0
LINE
8
0
10
50.367035
20
149.050660
11
49.682421
21
148.961344
0
LINE
8
0
10
49.682421
20
148.961344
11
49.033705
21
148.693395
0
LINE
8
0
10
49.033705
20
148.693395
11
48.477297
21
148.265565
0
LINE
8
0
10
48.477297
20
148.265565
11
48.057640
21
147.717330
0
LINE
8
0
10
48.057640
20
147.717330
11
47.792683
21
147.079779
0
LINE
8
0
10
47.792683
20
147.079779
11
47.700375
21
146.384000
0
LINE
8
0
10
47.700375
20
146.384000
11
47.792684
21
145.688221
0
LINE
8
0
10
47.792684
20
145.688221
11
48.057642
21
145.050670
0
LINE
8
0
10
48.057642
20
145.050670
11
48.477299
21
144.502435
0
LINE
8
0
10
48.477299
20
144.502435
11
49.033707
21
144.074605
0
LINE
8
0
10
49.033707
20
144.074605
11
49.682423
21
143.806656
0
LINE
8
0
10
49.682423
20
143.806656
11
50.367037
21
143.717340
0
LINE
8
0
10
50.367037
20
143.717340
11
51.051652
21
143.806656
0
LINE
8
0
10
51.051652
20
143.806656
11
51.700367
21
144.074605
0
LINE
8
0
10
51.700367
20
144.074605
11
52.256776
21
144.502435
0
LINE
8
0
10
52.256776
20
144.502435
11
52.676433
21
145.050670
0
LINE
8
0
10
52.676433
20
145.050670
11
52.941390
21
145.688221
0
LINE
8
0
10
52.941390
20
145.688221
11
53.033698
21
146.384000
0
LINE
8
0
10
53.033698
20
146.384000
11
53.033700
21
146.384000
0
LINE
8
0
10
16.221200
20
41.182700
11
16.110430
21
42.017636
0
LINE
8
0
10
16.110430
20
42.017636
11
15.792481
21
42.782700
0
LINE
8
0
10
15.792481
20
42.782700
11
15.288891
21
43.440584
0
LINE
8
0
10
15.288891
20
43.440584
11
14.621200
21
43.953981
0
LINE
8
0
10
14.621200
20
43.953981
11
13.842739
21
44.275520
0
LINE
8
0
10
13.842739
20
44.275520
11
13.021200
21
44.382700
0
LINE
8
0
10
13.021200
20
44.382700
11
12.199661
21
44.275520
0
LINE
8
0
10
12.199661
20
44.275520
11
11.421200
21
43.953981
0
LINE
8
0
10
11.421200
20
43.953981
11
10.753509
21
43.440584
0
LINE
8
0
10
10.753509
20
43.440584
11
10.249919
21
42.782700
0
LINE
8
0
10
10.249919
20
42.782700
11
9.931970
21
42.017636
0
LINE
8
0
10
9.931970
20
42.017636
11
9.821200
21
41.182700
0
LINE
8
0
10
9.821200
20
41.182700
11
9.931970
21
40.347764
0
LINE
8
0
10
9.931970
20
40.347764
11
10.249919
21
39.582700
0
LINE
8
0
10
10.249919
20
39.582700
11
10.753509
21
38.924816
0
LINE
8
0
10
10.753509
20
38.924816
11
11.421200
21
38.411419
0
LINE
8
0
10
11.421200
20
38.411419
11
12.199661
21
38.089880
0
LINE
8
0
10
12.199661
20
38.089880
11
13.021200
21
37.982700
0
LINE
8
0
10
13.021200
20
37.982700
11
13.842739
21
38.089880
0
LINE
8
0
10
13.842739
20
38.089880
11
14.621200
21
38.411419
0
LINE
8
0
10
14.621200
20
38.411419
11
15.288891
21
38.924816
0
LINE
8
0
10
15.288891
20
38.924816
11
15.792481
21
39.582700
0
LINE
8
0
10
15.792481
20
39.582700
11
16.110430
21
40.347764
0
LINE
8
0
10
16.110430
20
40.347764
11
16.221200
21
41.182700
0
LINE
8
0
10
16.221200
20
41.182700
11
16.221200
21
41.182700
0
LINE
8
0
10
25.821200
20
85.584200
11
25.728889
21
86.279979
0
LINE
8
0
10
25.728889
20
86.279979
11
25.463931
21
86.917530
0
LINE
8
0
10
25.463931
20
86.917530
11
25.044273
21
87.465765
0
LINE
8
0
10
25.044273
20
87.465765
11
24.487865
21
87.893595
0
LINE
8
0
10
24.487865
20
87.893595
11
23.839149
21
88.161544
0
LINE
8
0
10
23.839149
20
88.161544
11
23.154535
21
88.250860
0
LINE
8
0
10
23.154535
20
88.250860
11
22.469921
21
88.161544
0
LINE
8
0
10
22.469921
20
88.161544
11
21.821205
21
87.893595
0
LINE
8
0
10
21.821205
20
87.893595
11
21.264797
21
87.465765
0
LINE
8
0
10
21.264797
20
87.465765
11
20.845140
21
86.917530
0
LINE
8
0
10
20.845140
20
86.917530
11
20.580183
21
86.279979
0
LINE
8
0
10
20.580183
20
86.279979
11
20.487875
21
85.584200
0
LINE
8
0
10
20.487875
20
85.584200
11
20.580184
21
84.888421
0
LINE
8
0
10
20.580184
20
84.888421
11
20.845142
21
84.250870
0
LINE
8
0
10
20.845142
20
84.250870
11
21.264799
21
83.702635
0
LINE
8
0
10
21.264799
20
83.702635
11
21.821207
21
83.274805
0
LINE
8
0
10
21.821207
20
83.274805
11
22.469923
21
83.006856
0
LINE
8
0
10
22.469923
20
83.006856
11
23.154537
21
82.917540
0
LINE
8
0
10
23.154537
20
82.917540
11
23.839152
21
83.006856
0
LINE
8
0
10
23.839152
20
83.006856
11
24.487868
21
83.274805
0
LINE
8
0
10
24.487868
20
83.274805
11
25.044276
21
83.702635
0
LINE
8
0
10
25.044276
20
83.702635
11
25.463933
21
84.250870
0
LINE
8
0
10
25.463933
20
84.250870
11
25.728890
21
84.888421
0
LINE
8
0
10
25.728890
20
84.888421
11
25.821198
21
85.584200
0
LINE
8
0
10
25.821198
20
85.584200
11
25.821200
21
85.584200
0
LINE
8
0
10
80.459900
20
85.584200
11
80.367589
21
86.279979
0
LINE
8
0
10
80.367589
20
86.279979
11
80.102631
21
86.917530
0
LINE
8
0
10
80.102631
20
86.917530
11
79.682973
21
87.465765
0
LINE
8
0
10
79.682973
20
87.465765
11
79.126565
21
87.893595
0
LINE
8
0
10
79.126565
20
87.893595
11
78.477849
21
88.161544
0
LINE
8
0
10
78.477849
20
88.161544
11
77.793235
21
88.250860
0
LINE
8
0
10
77.793235
20
88.250860
11
77.108621
21
88.161544
0
LINE
8
0
10
77.108621
20
88.161544
11
76.459905
21
87.893595
0
LINE
8
0
10
76.459905
20
87.893595
11
75.903497
21
87.465765
0
LINE
8
0
10
75.903497
20
87.465765
11
75.483840
21
86.917530
0
LINE
8
0
10
75.483840
20
86.917530
11
75.218883
21
86.279979
0
LINE
8
0
10
75.218883
20
86.279979
11
75.126575
21
85.584200
0
LINE
8
0
10
75.126575
20
85.584200
11
75.218884
21
84.888421
0
LINE
8
0
10
75.218884
20
84.888421
11
75.483842
21
84.250870
0
LINE
8
0
10
75.483842
20
84.250870
11
75.903499
21
83.702635
0
LINE
8
0
10
75.903499
20
83.702635
11
76.459907
21
83.274805
0
LINE
8
0
10
76.459907
20
83.274805
11
77.108623
21
83.006856
0
LINE
8
0
10
77.108623
20
83.006856
11
77.793238
21
82.917540
0
LINE
8
0
10
77.793238
20
82.917540
11
78.477852
21
83.006856
0
LINE
8
0
10
78.477852
20
83.006856
11
79.126567
21
83.274805
0
LINE
8
0
10
79.126567
20
83.274805
11
79.682976
21
83.702635
0
LINE
8
0
10
79.682976
20
83.702635
11
80.102633
21
84.250870
0
LINE
8
0
10
80.102633
20
84.250870
11
80.367590
21
84.888421
0
LINE
8
0
10
80.367590
20
84.888421
11
80.459897
21
85.584200
0
LINE
8
0
10
80.459897
20
85.584200
11
80.459900
21
85.584200
0
LINE
8
0
10
68.541100
20
94.516000
11
68.319591
21
95.342665
0
LINE
8
0
10
68.319591
20
95.342665
11
67.714430
21
95.947826
0
LINE
8
0
10
67.714430
20
95.947826
11
66.887765
21
96.169330
0
LINE
8
0
10
66.887765
20
96.169330
11
66.061100
21
95.947826
0
LINE
8
0
10
66.061100
20
95.947826
11
65.455939
21
95.342665
0
LINE
8
0
10
65.455939
20
95.342665
11
65.234435
21
94.516000
0
LINE
8
0
10
65.234435
20
94.516000
11
65.455941
21
93.689335
0
LINE
8
0
10
65.455941
20
93.689335
11
66.061102
21
93.084174
0
LINE
8
0
10
66.061102
20
93.084174
11
66.887767
21
92.862670
0
LINE
8
0
10
66.887767
20
92.862670
11
67.714433
21
93.084174
0
LINE
8
0
10
67.714433
20
93.084174
11
68.319593
21
93.689335
0
LINE
8
0
10
68.319593
20
93.689335
11
68.541097
21
94.516000
0
LINE
8
0
10
68.541097
20
94.516000
11
68.541100
21
94.516000
0
LINE
8
0
10
35.474500
20
61.449400
11
35.252991
21
62.276065
0
LINE
8
0
10
35.252991
20
62.276065
11
34.647830
21
62.881226
0
LINE
8
0
10
34.647830
20
62.881226
11
33.821165
21
63.102730
0
LINE
8
0
10
33.821165
20
63.102730
11
32.994500
21
62.881226
0
LINE
8
0
10
32.994500
20
62.881226
11
32.389339
21
62.276065
0
LINE
8
0
10
32.389339
20
62.276065
11
32.167835
21
61.449400
0
LINE
8
0
10
32.167835
20
61.449400
11
32.389341
21
60.622735
0
LINE
8
0
10
32.389341
20
60.622735
11
32.994502
21
60.017574
0
LINE
8
0
10
32.994502
20
60.017574
11
33.821167
21
59.796070
0
LINE
8
0
10
33.821167
20
59.796070
11
34.647832
21
60.017574
0
LINE
8
0
10
34.647832
20
60.017574
11
35.252993
21
60.622735
0
LINE
8
0
10
35.252993
20
60.622735
11
35.474497
21
61.449400
0
LINE
8
0
10
35.474497
20
61.449400
11
35.474500
21
61.449400
0
LINE
8
0
10
35.474500
20
94.516000
11
35.252991
21
95.342665
0
LINE
8
0
10
35.252991
20
95.342665
11
34.647830
21
95.947826
0
LINE
8
0
10
34.647830
20
95.947826
11
33.821165
21
96.169330
0
LINE
8
0
10
33.821165
20
96.169330
11
32.994500
21
95.947826
0
LINE
8
0
10
32.994500
20
95.947826
11
32.389339
21
95.342665
0
LINE
8
0
10
32.389339
20
95.342665
11
32.167835
21
94.516000
0
LINE
8
0
10
32.167835
20
94.516000
11
32.389341
21
93.689335
0
LINE
8
0
10
32.389341
20
93.689335
11
32.994502
21
93.084174
0
LINE
8
0
10
32.994502
20
93.084174
11
33.821167
21
92.862670
0
LINE
8
0
10
33.821167
20
92.862670
11
34.647832
21
93.084174
0
LINE
8
0
10
34.647832
20
93.084174
11
35.252993
21
93.689335
0
LINE
8
0
10
35.252993
20
93.689335
11
35.474497
21
94.516000
0
LINE
8
0
10
35.474497
20
94.516000
11
35.474500
21
94.516000
0
LINE
8
0
10
68.541100
20
61.449400
11
68.319591
21
62.276065
0
LINE
8
0
10
68.319591
20
62.276065
11
67.714430
21
62.881226
0
LINE
8
0
10
67.714430
20
62.881226
11
66.887765
21
63.102730
0
LINE
8
0
10
66.887765
20
63.102730
11
66.061100
21
62.881226
0
LINE
8
0
10
66.061100
20
62.881226
11
65.455939
21
62.276065
0
LINE
8
0
10
65.455939
20
62.276065
11
65.234435
21
61.449400
0
LINE
8
0
10
65.234435
20
61.449400
11
65.455941
21
60.622735
0
LINE
8
0
10
65.455941
20
60.622735
11
66.061102
21
60.017574
0
LINE
8
0
10
66.061102
20
60.017574
11
66.887767
21
59.796070
0
LINE
8
0
10
66.887767
20
59.796070
11
67.714433
21
60.017574
0
LINE
8
0
10
67.714433
20
60.017574
11
68.319593
21
60.622735
0
LINE
8
0
10
68.319593
20
60.622735
11
68.541097
21
61.449400
0
LINE
8
0
10
68.541097
20
61.449400
11
68.541100
21
61.449400
0
LINE
8
0
10
62.354500
20
77.982700
11
62.248971
21
79.572215
0
LINE
8
0
10
62.248971
20
79.572215
11
61.939114
21
81.113712
0
LINE
8
0
10
61.939114
20
81.113712
11
61.435027
21
82.589703
0
LINE
8
0
10
61.435027
20
82.589703
11
60.746805
21
83.982700
0
LINE
8
0
10
60.746805
20
83.982700
11
59.884545
21
85.275217
0
LINE
8
0
10
59.884545
20
85.275217
11
58.858343
21
86.449765
0
LINE
8
0
10
58.858343
20
86.449765
11
57.678296
21
87.488857
0
LINE
8
0
10
57.678296
20
87.488857
11
56.354500
21
88.375005
0
LINE
8
0
10
56.354500
20
88.375005
11
54.925175
21
89.078372
0
LINE
8
0
10
54.925175
20
89.078372
11
53.435271
21
89.580776
0
LINE
8
0
10
53.435271
20
89.580776
11
51.904982
21
89.882219
0
LINE
8
0
10
51.904982
20
89.882219
11
50.354500
21
89.982700
0
LINE
8
0
10
50.354500
20
89.982700
11
48.804018
21
89.882219
0
LINE
8
0
10
48.804018
20
89.882219
11
47.273729
21
89.580776
0
LINE
8
0
10
47.273729
20
89.580776
11
45.783825
21
89.078372
0
LINE
8
0
10
45.783825
20
89.078372
11
44.354500
21
88.375005
0
LINE
8
0
10
44.354500
20
88.375005
11
43.030704
21
87.488857
0
LINE
8
0
10
43.030704
20
87.488857
11
41.850657
21
86.449765
0
LINE
8
0
10
41.850657
20
86.449765
11
40.824455
21
85.275217
0
LINE
8
0
10
40.824455
20
85.275217
11
39.962195
21
83.982700
0
LINE
8
0
10
39.962195
20
83.982700
11
39.273973
21
82.589703
0
LINE
8
0
10
39.273973
20
82.589703
11
38.769886
21
81.113712
0
LINE
8
0
10
38.769886
20
81.113712
11
38.460029
21
79.572215
0
LINE
8
0
10
38.460029
20
79.572215
11
38.354500
21
77.982700
0
LINE
8
0
10
38.354500
20
77.982700
11
38.460029
21
76.393185
0
LINE
8
0
10
38.460029
20
76.393185
11
38.769886
21
74.851688
0
LINE
8
0
10
38.769886
20
74.851688
11
39.273973
21
73.375697
0
LINE
8
0
10
39.273973
20
73.375697
11
39.962195
21
71.982700
0
LINE
8
0
10
39.962195
20
71.982700
11
40.824455
21
70.690184
0
LINE
8
0
10
40.824455
20
70.690184
11
41.850657
21
69.515636
0
LINE
8
0
10
41.850657
20
69.515636
11
43.030704
21
68.476544
0
LINE
8
0
10
43.030704
20
68.476544
11
44.354500
21
67.590395
0
LINE
8
0
10
44.354500
20
67.590395
11
45.783825
21
66.887029
0
LINE
8
0
10
45.783825
20
66.887029
11
47.273729
21
66.384624
0
LINE
8
0
10
47.273729
20
66.384624
11
48.804018
21
66.083181
0
LINE
8
0
10
48.804018
20
66.083181
11
50.354500
21
65.982700
0
LINE
8
0
10
50.354500
20
65.982700
11
51.904982
21
66.083181
0
LINE
8
0
10
51.904982
20
66.083181
11
53.435271
21
66.384624
0
LINE
8
0
10
53.435271
20
66.384624
11
54.925175
21
66.887029
0
LINE
8
0
10
54.925175
20
66.887029
11
56.354500
21
67.590395
0
LINE
8
0
10
56.354500
20
67.590395
11
57.678296
21
68.476544
0
LINE
8
0
10
57.678296
20
68.476544
11
58.858343
21
69.515636
0
LINE
8
0
10
58.858343
20
69.515636
11
59.884545
21
70.690184
0
LINE
8
0
10
59.884545
20
70.690184
11
60.746805
21
71.982700
0
LINE
8
0
10
60.746805
20
71.982700
11
61.435027
21
73.375697
0
LINE
8
0
10
61.435027
20
73.375697
11
61.939114
21
74.851688
0
LINE
8
0
10
61.939114
20
74.851688
11
62.248971
21
76.393185
0
LINE
8
0
10
62.248971
20
76.393185
11
62.354500
21
77.982700
0
LINE
8
0
10
62.354500
20
77.982700
11
62.354500
21
77.982700
 0 
ENDSEC
 0 
EOF