999
"DXF R12 Output" (www.mydxf.blogspot.com)
 0 
SECTION
 2 
HEADER
 9 
$ACADVER
 1 
AC1009
 9 
$EXTMIN
 10 
 0 
 20 
 0 
 9 
$EXTMAX
 10 
 8.5 
 20 
 11 
 0 
ENDSEC
 0 
SECTION
 2 
ENTITIES
0
LINE
8
Layer 1
10
0.846666
20
158.714000
11
-0.846666
21
157.020000
0
LINE
8
Layer 1
10
0.000000
20
159.278000
11
0.000000
21
156.456000
0
LINE
8
Layer 1
10
2.257780
20
156.738000
11
1.128890
21
155.609110
0
LINE
8
Layer 1
10
1.693330
20
157.303000
11
0.564440
21
156.174110
0
LINE
8
Layer 1
10
1.128890
20
157.867000
11
0.000000
21
156.738110
0
LINE
8
0
10
59.554800
20
78.316200
11
59.479750
21
79.446521
0
LINE
8
0
10
59.479750
20
79.446521
11
59.259403
21
80.542696
0
LINE
8
0
10
59.259403
20
80.542696
11
58.411533
21
82.582865
0
LINE
8
0
10
58.411533
20
82.582865
11
57.068625
21
84.337221
0
LINE
8
0
10
57.068625
20
84.337221
11
56.229481
21
85.076131
0
LINE
8
0
10
56.229481
20
85.076131
11
55.288115
21
85.706281
0
LINE
8
0
10
55.288115
20
85.706281
11
54.271706
21
86.206452
0
LINE
8
0
10
54.271706
20
86.206452
11
53.212220
21
86.563718
0
LINE
8
0
10
53.212220
20
86.563718
11
51.021450
21
86.849530
0
LINE
8
0
10
51.021450
20
86.849530
11
48.830680
21
86.563718
0
LINE
8
0
10
48.830680
20
86.563718
11
47.771194
21
86.206452
0
LINE
8
0
10
47.771194
20
86.206452
11
46.754785
21
85.706281
0
LINE
8
0
10
46.754785
20
85.706281
11
45.813419
21
85.076131
0
LINE
8
0
10
45.813419
20
85.076131
11
44.974275
21
84.337221
0
LINE
8
0
10
44.974275
20
84.337221
11
43.631369
21
82.582865
0
LINE
8
0
10
43.631369
20
82.582865
11
42.783505
21
80.542696
0
LINE
8
0
10
42.783505
20
80.542696
11
42.563163
21
79.446521
0
LINE
8
0
10
42.563163
20
79.446521
11
42.488120
21
78.316200
0
LINE
8
0
10
42.488120
20
78.316200
11
42.563166
21
77.185879
0
LINE
8
0
10
42.563166
20
77.185879
11
42.783511
21
76.089704
0
LINE
8
0
10
42.783511
20
76.089704
11
43.631378
21
74.049535
0
LINE
8
0
10
43.631378
20
74.049535
11
44.974285
21
72.295179
0
LINE
8
0
10
44.974285
20
72.295179
11
45.813429
21
71.556269
0
LINE
8
0
10
45.813429
20
71.556269
11
46.754795
21
70.926119
0
LINE
8
0
10
46.754795
20
70.926119
11
47.771204
21
70.425948
0
LINE
8
0
10
47.771204
20
70.425948
11
48.830690
21
70.068682
0
LINE
8
0
10
48.830690
20
70.068682
11
51.021460
21
69.782870
0
LINE
8
0
10
51.021460
20
69.782870
11
53.212230
21
70.068682
0
LINE
8
0
10
53.212230
20
70.068682
11
54.271716
21
70.425948
0
LINE
8
0
10
54.271716
20
70.425948
11
55.288125
21
70.926119
0
LINE
8
0
10
55.288125
20
70.926119
11
56.229491
21
71.556269
0
LINE
8
0
10
56.229491
20
71.556269
11
57.068635
21
72.295179
0
LINE
8
0
10
57.068635
20
72.295179
11
58.411541
21
74.049535
0
LINE
8
0
10
58.411541
20
74.049535
11
59.259405
21
76.089704
0
LINE
8
0
10
59.259405
20
76.089704
11
59.479747
21
77.185879
0
LINE
8
0
10
59.479747
20
77.185879
11
59.554790
21
78.316200
0
LINE
8
0
10
59.554790
20
78.316200
11
59.554800
21
78.316200
0
LINE
8
0
10
16.888100
20
41.516200
11
16.777330
21
42.351136
0
LINE
8
0
10
16.777330
20
42.351136
11
16.459381
21
43.116200
0
LINE
8
0
10
16.459381
20
43.116200
11
15.955791
21
43.774084
0
LINE
8
0
10
15.955791
20
43.774084
11
15.288100
21
44.287481
0
LINE
8
0
10
15.288100
20
44.287481
11
14.509639
21
44.609020
0
LINE
8
0
10
14.509639
20
44.609020
11
13.688100
21
44.716200
0
LINE
8
0
10
13.688100
20
44.716200
11
12.866561
21
44.609020
0
LINE
8
0
10
12.866561
20
44.609020
11
12.088100
21
44.287481
0
LINE
8
0
10
12.088100
20
44.287481
11
11.420409
21
43.774084
0
LINE
8
0
10
11.420409
20
43.774084
11
10.916819
21
43.116200
0
LINE
8
0
10
10.916819
20
43.116200
11
10.598870
21
42.351136
0
LINE
8
0
10
10.598870
20
42.351136
11
10.488100
21
41.516200
0
LINE
8
0
10
10.488100
20
41.516200
11
10.598870
21
40.681264
0
LINE
8
0
10
10.598870
20
40.681264
11
10.916819
21
39.916200
0
LINE
8
0
10
10.916819
20
39.916200
11
11.420409
21
39.258316
0
LINE
8
0
10
11.420409
20
39.258316
11
12.088100
21
38.744919
0
LINE
8
0
10
12.088100
20
38.744919
11
12.866561
21
38.423380
0
LINE
8
0
10
12.866561
20
38.423380
11
13.688100
21
38.316200
0
LINE
8
0
10
13.688100
20
38.316200
11
14.509639
21
38.423380
0
LINE
8
0
10
14.509639
20
38.423380
11
15.288100
21
38.744919
0
LINE
8
0
10
15.288100
20
38.744919
11
15.955791
21
39.258316
0
LINE
8
0
10
15.955791
20
39.258316
11
16.459381
21
39.916200
0
LINE
8
0
10
16.459381
20
39.916200
11
16.777330
21
40.681264
0
LINE
8
0
10
16.777330
20
40.681264
11
16.888100
21
41.516200
0
LINE
8
0
10
16.888100
20
41.516200
11
16.888100
21
41.516200
0
LINE
8
0
10
16.888100
20
62.849500
11
16.777330
21
63.684436
0
LINE
8
0
10
16.777330
20
63.684436
11
16.459381
21
64.449500
0
LINE
8
0
10
16.459381
20
64.449500
11
15.955791
21
65.107384
0
LINE
8
0
10
15.955791
20
65.107384
11
15.288100
21
65.620781
0
LINE
8
0
10
15.288100
20
65.620781
11
14.509639
21
65.942320
0
LINE
8
0
10
14.509639
20
65.942320
11
13.688100
21
66.049500
0
LINE
8
0
10
13.688100
20
66.049500
11
12.866561
21
65.942320
0
LINE
8
0
10
12.866561
20
65.942320
11
12.088100
21
65.620781
0
LINE
8
0
10
12.088100
20
65.620781
11
11.420409
21
65.107384
0
LINE
8
0
10
11.420409
20
65.107384
11
10.916819
21
64.449500
0
LINE
8
0
10
10.916819
20
64.449500
11
10.598870
21
63.684436
0
LINE
8
0
10
10.598870
20
63.684436
11
10.488100
21
62.849500
0
LINE
8
0
10
10.488100
20
62.849500
11
10.598870
21
62.014564
0
LINE
8
0
10
10.598870
20
62.014564
11
10.916819
21
61.249500
0
LINE
8
0
10
10.916819
20
61.249500
11
11.420409
21
60.591616
0
LINE
8
0
10
11.420409
20
60.591616
11
12.088100
21
60.078219
0
LINE
8
0
10
12.088100
20
60.078219
11
12.866561
21
59.756680
0
LINE
8
0
10
12.866561
20
59.756680
11
13.688100
21
59.649500
0
LINE
8
0
10
13.688100
20
59.649500
11
14.509639
21
59.756680
0
LINE
8
0
10
14.509639
20
59.756680
11
15.288100
21
60.078219
0
LINE
8
0
10
15.288100
20
60.078219
11
15.955791
21
60.591616
0
LINE
8
0
10
15.955791
20
60.591616
11
16.459381
21
61.249500
0
LINE
8
0
10
16.459381
20
61.249500
11
16.777330
21
62.014564
0
LINE
8
0
10
16.777330
20
62.014564
11
16.888100
21
62.849500
0
LINE
8
0
10
16.888100
20
62.849500
11
16.888100
21
62.849500
0
LINE
8
0
10
40.888100
20
41.516200
11
40.778557
21
42.352264
0
LINE
8
0
10
40.778557
20
42.352264
11
40.461270
21
43.118590
0
LINE
8
0
10
40.461270
20
43.118590
11
39.957808
21
43.777720
0
LINE
8
0
10
39.957808
20
43.777720
11
39.289738
21
44.292195
0
LINE
8
0
10
39.289738
20
44.292195
11
38.510533
21
44.614441
0
LINE
8
0
10
38.510533
20
44.614441
11
37.688105
21
44.721857
0
LINE
8
0
10
37.688105
20
44.721857
11
36.865677
21
44.614441
0
LINE
8
0
10
36.865677
20
44.614441
11
36.086472
21
44.292195
0
LINE
8
0
10
36.086472
20
44.292195
11
35.418402
21
43.777720
0
LINE
8
0
10
35.418402
20
43.777720
11
34.914940
21
43.118590
0
LINE
8
0
10
34.914940
20
43.118590
11
34.597653
21
42.352264
0
LINE
8
0
10
34.597653
20
42.352264
11
34.488110
21
41.516200
0
LINE
8
0
10
34.488110
20
41.516200
11
34.597653
21
40.680136
0
LINE
8
0
10
34.597653
20
40.680136
11
34.914940
21
39.913810
0
LINE
8
0
10
34.914940
20
39.913810
11
35.418402
21
39.254680
0
LINE
8
0
10
35.418402
20
39.254680
11
36.086472
21
38.740205
0
LINE
8
0
10
36.086472
20
38.740205
11
36.865677
21
38.417959
0
LINE
8
0
10
36.865677
20
38.417959
11
37.688105
21
38.310543
0
LINE
8
0
10
37.688105
20
38.310543
11
38.510533
21
38.417959
0
LINE
8
0
10
38.510533
20
38.417959
11
39.289738
21
38.740205
0
LINE
8
0
10
39.289738
20
38.740205
11
39.957808
21
39.254680
0
LINE
8
0
10
39.957808
20
39.254680
11
40.461270
21
39.913810
0
LINE
8
0
10
40.461270
20
39.913810
11
40.778557
21
40.680136
0
LINE
8
0
10
40.778557
20
40.680136
11
40.888100
21
41.516200
0
LINE
8
0
10
40.888100
20
41.516200
11
40.888100
21
41.516200
0
LINE
8
0
10
53.700700
20
146.718000
11
53.608389
21
147.413779
0
LINE
8
0
10
53.608389
20
147.413779
11
53.343431
21
148.051330
0
LINE
8
0
10
53.343431
20
148.051330
11
52.923773
21
148.599565
0
LINE
8
0
10
52.923773
20
148.599565
11
52.367365
21
149.027395
0
LINE
8
0
10
52.367365
20
149.027395
11
51.718649
21
149.295344
0
LINE
8
0
10
51.718649
20
149.295344
11
51.034035
21
149.384660
0
LINE
8
0
10
51.034035
20
149.384660
11
50.349421
21
149.295344
0
LINE
8
0
10
50.349421
20
149.295344
11
49.700705
21
149.027395
0
LINE
8
0
10
49.700705
20
149.027395
11
49.144297
21
148.599565
0
LINE
8
0
10
49.144297
20
148.599565
11
48.724640
21
148.051330
0
LINE
8
0
10
48.724640
20
148.051330
11
48.459683
21
147.413779
0
LINE
8
0
10
48.459683
20
147.413779
11
48.367375
21
146.718000
0
LINE
8
0
10
48.367375
20
146.718000
11
48.459684
21
146.022221
0
LINE
8
0
10
48.459684
20
146.022221
11
48.724642
21
145.384670
0
LINE
8
0
10
48.724642
20
145.384670
11
49.144299
21
144.836435
0
LINE
8
0
10
49.144299
20
144.836435
11
49.700707
21
144.408605
0
LINE
8
0
10
49.700707
20
144.408605
11
50.349423
21
144.140656
0
LINE
8
0
10
50.349423
20
144.140656
11
51.034037
21
144.051340
0
LINE
8
0
10
51.034037
20
144.051340
11
51.718652
21
144.140656
0
LINE
8
0
10
51.718652
20
144.140656
11
52.367367
21
144.408605
0
LINE
8
0
10
52.367367
20
144.408605
11
52.923776
21
144.836435
0
LINE
8
0
10
52.923776
20
144.836435
11
53.343433
21
145.384670
0
LINE
8
0
10
53.343433
20
145.384670
11
53.608390
21
146.022221
0
LINE
8
0
10
53.608390
20
146.022221
11
53.700697
21
146.718000
0
LINE
8
0
10
53.700697
20
146.718000
11
53.700700
21
146.718000
0
LINE
8
0
10
26.488100
20
85.917700
11
26.395789
21
86.613479
0
LINE
8
0
10
26.395789
20
86.613479
11
26.130831
21
87.251030
0
LINE
8
0
10
26.130831
20
87.251030
11
25.711173
21
87.799265
0
LINE
8
0
10
25.711173
20
87.799265
11
25.154765
21
88.227095
0
LINE
8
0
10
25.154765
20
88.227095
11
24.506049
21
88.495044
0
LINE
8
0
10
24.506049
20
88.495044
11
23.821435
21
88.584360
0
LINE
8
0
10
23.821435
20
88.584360
11
23.136821
21
88.495044
0
LINE
8
0
10
23.136821
20
88.495044
11
22.488105
21
88.227095
0
LINE
8
0
10
22.488105
20
88.227095
11
21.931697
21
87.799265
0
LINE
8
0
10
21.931697
20
87.799265
11
21.512040
21
87.251030
0
LINE
8
0
10
21.512040
20
87.251030
11
21.247083
21
86.613479
0
LINE
8
0
10
21.247083
20
86.613479
11
21.154775
21
85.917700
0
LINE
8
0
10
21.154775
20
85.917700
11
21.247084
21
85.221921
0
LINE
8
0
10
21.247084
20
85.221921
11
21.512042
21
84.584370
0
LINE
8
0
10
21.512042
20
84.584370
11
21.931699
21
84.036135
0
LINE
8
0
10
21.931699
20
84.036135
11
22.488107
21
83.608305
0
LINE
8
0
10
22.488107
20
83.608305
11
23.136823
21
83.340356
0
LINE
8
0
10
23.136823
20
83.340356
11
23.821437
21
83.251040
0
LINE
8
0
10
23.821437
20
83.251040
11
24.506052
21
83.340356
0
LINE
8
0
10
24.506052
20
83.340356
11
25.154767
21
83.608305
0
LINE
8
0
10
25.154767
20
83.608305
11
25.711176
21
84.036135
0
LINE
8
0
10
25.711176
20
84.036135
11
26.130833
21
84.584370
0
LINE
8
0
10
26.130833
20
84.584370
11
26.395790
21
85.221921
0
LINE
8
0
10
26.395790
20
85.221921
11
26.488097
21
85.917700
0
LINE
8
0
10
26.488097
20
85.917700
11
26.488100
21
85.917700
0
LINE
8
0
10
81.126800
20
85.917700
11
81.034489
21
86.613479
0
LINE
8
0
10
81.034489
20
86.613479
11
80.769531
21
87.251030
0
LINE
8
0
10
80.769531
20
87.251030
11
80.349873
21
87.799265
0
LINE
8
0
10
80.349873
20
87.799265
11
79.793465
21
88.227095
0
LINE
8
0
10
79.793465
20
88.227095
11
79.144749
21
88.495044
0
LINE
8
0
10
79.144749
20
88.495044
11
78.460135
21
88.584360
0
LINE
8
0
10
78.460135
20
88.584360
11
77.775521
21
88.495044
0
LINE
8
0
10
77.775521
20
88.495044
11
77.126805
21
88.227095
0
LINE
8
0
10
77.126805
20
88.227095
11
76.570397
21
87.799265
0
LINE
8
0
10
76.570397
20
87.799265
11
76.150740
21
87.251030
0
LINE
8
0
10
76.150740
20
87.251030
11
75.885783
21
86.613479
0
LINE
8
0
10
75.885783
20
86.613479
11
75.793475
21
85.917700
0
LINE
8
0
10
75.793475
20
85.917700
11
75.885784
21
85.221921
0
LINE
8
0
10
75.885784
20
85.221921
11
76.150742
21
84.584370
0
LINE
8
0
10
76.150742
20
84.584370
11
76.570399
21
84.036135
0
LINE
8
0
10
76.570399
20
84.036135
11
77.126807
21
83.608305
0
LINE
8
0
10
77.126807
20
83.608305
11
77.775523
21
83.340356
0
LINE
8
0
10
77.775523
20
83.340356
11
78.460138
21
83.251040
0
LINE
8
0
10
78.460138
20
83.251040
11
79.144752
21
83.340356
0
LINE
8
0
10
79.144752
20
83.340356
11
79.793468
21
83.608305
0
LINE
8
0
10
79.793468
20
83.608305
11
80.349876
21
84.036135
0
LINE
8
0
10
80.349876
20
84.036135
11
80.769533
21
84.584370
0
LINE
8
0
10
80.769533
20
84.584370
11
81.034490
21
85.221921
0
LINE
8
0
10
81.034490
20
85.221921
11
81.126797
21
85.917700
0
LINE
8
0
10
81.126797
20
85.917700
11
81.126800
21
85.917700
0
LINE
8
0
10
78.189400
20
78.667400
11
72.354720
21
78.667315
0
LINE
8
0
10
72.354720
20
78.667315
11
72.354700
21
30.849500
0
LINE
8
0
10
72.354700
20
30.849500
11
3.021470
21
30.849500
0
LINE
8
0
10
3.021470
20
30.849500
11
3.021470
21
73.516200
0
LINE
8
0
10
3.021470
20
73.516200
11
25.343800
21
115.116000
0
LINE
8
0
10
25.343800
20
115.116000
11
40.126000
21
115.116000
0
LINE
8
0
10
40.126000
20
115.116000
11
40.126000
21
142.750000
0
LINE
8
0
10
40.126000
20
142.750000
11
44.217490
21
150.374930
0
LINE
8
0
10
44.217490
20
150.374930
11
44.800346
21
151.298497
0
LINE
8
0
10
44.800346
20
151.298497
11
45.496337
21
152.119225
0
LINE
8
0
10
45.496337
20
152.119225
11
47.173734
21
153.421077
0
LINE
8
0
10
47.173734
20
153.421077
11
49.141703
21
154.218308
0
LINE
8
0
10
49.141703
20
154.218308
11
50.200908
21
154.408261
0
LINE
8
0
10
50.200908
20
154.408261
11
51.292264
21
154.448743
0
LINE
8
0
10
51.292264
20
154.448743
11
52.378486
21
154.335517
0
LINE
8
0
10
52.378486
20
154.335517
11
53.422653
21
154.075299
0
LINE
8
0
10
53.422653
20
154.075299
11
55.333029
21
153.148508
0
LINE
8
0
10
55.333029
20
153.148508
11
56.919804
21
151.737613
0
LINE
8
0
10
56.919804
20
151.737613
11
57.559470
21
150.872266
0
LINE
8
0
10
57.559470
20
150.872266
11
58.079390
21
149.911860
0
LINE
8
0
10
58.079390
20
149.911860
11
61.335200
21
142.731570
0
LINE
8
0
10
61.335200
20
142.731570
11
61.335200
21
115.091000
0
LINE
8
0
10
61.335200
20
115.091000
11
73.661500
21
115.091000
0
LINE
8
0
10
73.661500
20
115.091000
11
84.916000
21
89.228200
0
LINE
8
0
10
84.916000
20
89.228200
11
85.554005
21
87.440400
0
LINE
8
0
10
85.554005
20
87.440400
11
85.707648
21
85.579144
0
LINE
8
0
10
85.707648
20
85.579144
11
85.381400
21
83.740274
0
LINE
8
0
10
85.381400
20
83.740274
11
84.579732
21
82.019633
0
LINE
8
0
10
84.579732
20
82.019633
11
83.359442
21
80.565614
0
LINE
8
0
10
83.359442
20
80.565614
11
81.830989
21
79.492434
0
LINE
8
0
10
81.830989
20
79.492434
11
80.079338
21
78.844671
0
LINE
8
0
10
80.079338
20
78.844671
11
78.189450
21
78.666900
0
LINE
8
0
10
78.189450
20
78.666900
11
78.189400
21
78.667400
 0 
ENDSEC
 0 
EOF