<?xml version="1.0" encoding="UTF-8" standalone="no"?>
<svg
   xmlns:dc="http://purl.org/dc/elements/1.1/"
   xmlns:cc="http://creativecommons.org/ns#"
   xmlns:rdf="http://www.w3.org/1999/02/22-rdf-syntax-ns#"
   xmlns:svg="http://www.w3.org/2000/svg"
   xmlns="http://www.w3.org/2000/svg"
   xmlns:sodipodi="http://sodipodi.sourceforge.net/DTD/sodipodi-0.dtd"
   xmlns:inkscape="http://www.inkscape.org/namespaces/inkscape"
   viewBox="0 0 396.85038 559.37009"
   width="105mm"
   height="148mm"
   version="1.1"
   id="svg867"
   sodipodi:docname="flasque roulement laser.svg"
   inkscape:version="1.0.1 (3bc2e813f5, 2020-09-07)">
  <metadata
     id="metadata871">
    <rdf:RDF>
      <cc:Work
         rdf:about="">
        <dc:format>image/svg+xml</dc:format>
        <dc:type
           rdf:resource="http://purl.org/dc/dcmitype/StillImage" />
        <dc:title></dc:title>
      </cc:Work>
    </rdf:RDF>
  </metadata>
  <sodipodi:namedview
     pagecolor="#ffffff"
     bordercolor="#666666"
     borderopacity="1"
     objecttolerance="10"
     gridtolerance="10"
     guidetolerance="10"
     inkscape:pageopacity="0"
     inkscape:pageshadow="2"
     inkscape:window-width="1920"
     inkscape:window-height="1121"
     id="namedview869"
     showgrid="false"
     units="mm"
     inkscape:zoom="2.1011218"
     inkscape:cx="157.22922"
     inkscape:cy="231.08254"
     inkscape:window-x="-9"
     inkscape:window-y="-9"
     inkscape:window-maximized="1"
     inkscape:current-layer="g863" />
  <defs
     id="defs845">
    <marker
       id="DistanceX"
       orient="auto"
       refX="0"
       refY="0"
       style="overflow:visible">
      <path
         d="M 3,-3 -3,3 M 0,-5 V 5"
         style="stroke:#000000;stroke-width:0.5"
         id="path833" />
    </marker>
    <pattern
       id="Hatch"
       patternUnits="userSpaceOnUse"
       width="8"
       height="8"
       x="0"
       y="0">
      <path
         d="M8 4 l-4,4"
         stroke="#000000"
         stroke-width="0.25"
         linecap="square"
         id="path836" />
      <path
         d="M6 2 l-4,4"
         stroke="#000000"
         stroke-width="0.25"
         linecap="square"
         id="path838" />
      <path
         d="M4 0 l-4,4"
         stroke="#000000"
         stroke-width="0.25"
         linecap="square"
         id="path840" />
    </pattern>
    <symbol
       id="*MODEL_SPACE" />
    <symbol
       id="*PAPER_SPACE" />
  </defs>
  <g
     inkscape:groupmode="layer"
     inkscape:label="0"
     id="g863">
    <path
       d="m 211.02096,281.8732 a 30.23622,30.23622 0 1 0 -60.47244,0 30.23622,30.23622 0 1 0 60.47244,0 z"
       style="fill:none;stroke:#ff0000;stroke-opacity:1;stroke-width:0.37795276;stroke-miterlimit:4;stroke-dasharray:none"
       id="path847" />
    <path
       d="m 59.839864,412.2669 a 11.338585,11.338585 0 1 0 -22.67717,0 11.338585,11.338585 0 1 0 22.67717,0 z"
       style="fill:none;stroke:#ff0000;stroke-opacity:1;stroke-width:0.37795276;stroke-miterlimit:4;stroke-dasharray:none"
       id="path849" />
    <path
       d="m 59.839864,336.6764 a 11.338585,11.338585 0 1 0 -22.67717,0 11.338585,11.338585 0 1 0 22.67717,0 z"
       style="fill:none;stroke:#ff0000;stroke-opacity:1;stroke-width:0.37795276;stroke-miterlimit:4;stroke-dasharray:none"
       id="path851" />
    <path
       d="m 144.87923,412.2669 a 11.338583,11.338583 0 1 0 -22.67716,0 11.338583,11.338583 0 1 0 22.67716,0 z"
       style="fill:none;stroke:#ff0000;stroke-opacity:1;stroke-width:0.37795276;stroke-miterlimit:4;stroke-dasharray:none"
       id="path853" />
    <path
       d="m 190.27813,39.505701 a 9.44882,9.44882 0 1 0 -18.89764,0 9.44882,9.44882 0 1 0 18.89764,0 z"
       style="fill:none;stroke:#ff0000;stroke-opacity:1;stroke-width:0.37795276;stroke-miterlimit:4;stroke-dasharray:none"
       id="path855" />
    <path
       d="m 93.85561,254.9388 a 9.448819,9.448819 0 1 0 -18.897636,0 9.448819,9.448819 0 1 0 18.897636,0 z"
       style="fill:none;stroke:#ff0000;stroke-opacity:1;stroke-width:0.37795276;stroke-miterlimit:4;stroke-dasharray:none"
       id="path857" />
    <path
       d="m 287.45741,254.9388 a 9.448819,9.448819 0 1 0 -18.89763,0 9.448819,9.448819 0 1 0 18.89763,0 z"
       style="fill:none;stroke:#ff0000;stroke-opacity:1;stroke-width:0.37795276;stroke-miterlimit:4;stroke-dasharray:none"
       id="path859" />
    <path
       d="m 277.04938,280.6289 -20.67408,3e-4 v 169.433 H 10.706004 V 298.8811 L 89.800954,151.4795 H 142.17886 V 53.562801 l 14.49742,-27.0175 a 27.410586,27.410586 0 0 1 49.11711,1.6408 l 11.53636,25.442 V 151.567 h 43.67567 l 39.8782,91.6399 a 25.708042,25.708042 0 0 1 -23.83424,37.422 z"
       style="fill:none;stroke:#ff0000;stroke-opacity:1;stroke-width:0.37795276;stroke-miterlimit:4;stroke-dasharray:none"
       id="path861" />
  </g>
  <desc
     id="desc865">flasque roulement laser.dxf - scale = 1.000000, origin = (0.000000, 0.000000), method = manual</desc>
</svg>
