<?xml version="1.0" encoding="UTF-8" standalone="no"?>
<svg
   xmlns:dc="http://purl.org/dc/elements/1.1/"
   xmlns:cc="http://creativecommons.org/ns#"
   xmlns:rdf="http://www.w3.org/1999/02/22-rdf-syntax-ns#"
   xmlns:svg="http://www.w3.org/2000/svg"
   xmlns="http://www.w3.org/2000/svg"
   xmlns:sodipodi="http://sodipodi.sourceforge.net/DTD/sodipodi-0.dtd"
   xmlns:inkscape="http://www.inkscape.org/namespaces/inkscape"
   viewBox="0 0 396.85038 559.37009"
   width="105mm"
   height="148mm"
   version="1.1"
   id="svg875"
   sodipodi:docname="flasque moteur laser.svg"
   inkscape:version="1.0.1 (3bc2e813f5, 2020-09-07)">
  <metadata
     id="metadata879">
    <rdf:RDF>
      <cc:Work
         rdf:about="">
        <dc:format>image/svg+xml</dc:format>
        <dc:type
           rdf:resource="http://purl.org/dc/dcmitype/StillImage" />
        <dc:title></dc:title>
      </cc:Work>
    </rdf:RDF>
  </metadata>
  <sodipodi:namedview
     pagecolor="#ffffff"
     bordercolor="#666666"
     borderopacity="1"
     objecttolerance="10"
     gridtolerance="10"
     guidetolerance="10"
     inkscape:pageopacity="0"
     inkscape:pageshadow="2"
     inkscape:window-width="1920"
     inkscape:window-height="1121"
     id="namedview877"
     showgrid="false"
     units="mm"
     inkscape:zoom="0.84631035"
     inkscape:cx="396.8504"
     inkscape:cy="208.15224"
     inkscape:window-x="-9"
     inkscape:window-y="-9"
     inkscape:window-maximized="1"
     inkscape:current-layer="g871" />
  <defs
     id="defs845">
    <marker
       id="DistanceX"
       orient="auto"
       refX="0"
       refY="0"
       style="overflow:visible">
      <path
         d="M 3,-3 -3,3 M 0,-5 V 5"
         style="stroke:#000000;stroke-width:0.5"
         id="path833" />
    </marker>
    <pattern
       id="Hatch"
       patternUnits="userSpaceOnUse"
       width="8"
       height="8"
       x="0"
       y="0">
      <path
         d="M8 4 l-4,4"
         stroke="#000000"
         stroke-width="0.25"
         linecap="square"
         id="path836" />
      <path
         d="M6 2 l-4,4"
         stroke="#000000"
         stroke-width="0.25"
         linecap="square"
         id="path838" />
      <path
         d="M4 0 l-4,4"
         stroke="#000000"
         stroke-width="0.25"
         linecap="square"
         id="path840" />
    </pattern>
    <symbol
       id="*MODEL_SPACE" />
    <symbol
       id="*PAPER_SPACE" />
  </defs>
  <g
     inkscape:groupmode="layer"
     inkscape:label="0"
     id="g871">
    <path
       d="m 142.51603,413.4485 a 11.338583,11.338583 0 1 0 -22.67716,0 11.338583,11.338583 0 1 0 22.67716,0 z"
       style="fill:none;stroke:#ff0000;stroke-width:0.377953;stroke-miterlimit:4;stroke-dasharray:none;stroke-opacity:1"
       id="path847" />
    <path
       d="m 254.0121,439.9052 a 11.338583,11.338583 0 0 1 -11.33858,11.3386 H 19.681385 A 11.338583,11.338583 0 0 1 8.3428049,439.9052 V 302.9126 a 11.338583,11.338583 0 0 1 1.34751,-5.3611 L 84.230298,158.6385 a 11.338583,11.338583 0 0 1 9.991069,-5.9774 H 132.2566 a 7.559055,7.559055 0 0 0 7.55906,-7.559 V 57.594301 a 11.338583,11.338583 0 0 1 1.34751,-5.3611 l 13.14991,-24.5063 a 27.410586,27.410586 0 0 1 49.11711,1.6408 l 10.52435,23.2101 a 11.338583,11.338583 0 0 1 1.01201,4.6825 V 145.1896 a 7.559055,7.559055 0 0 0 7.55905,7.559 h 28.6851 a 11.338583,11.338583 0 0 1 10.39683,6.8143 l 36.91289,84.8256 a 25.708042,25.708042 0 0 1 -23.83424,37.422 l -9.33561,1e-4 a 11.338583,11.338583 0 0 0 -11.33847,11.3386 z"
       style="fill:none;stroke:#ff0000;stroke-width:0.377953;stroke-miterlimit:4;stroke-dasharray:none;stroke-opacity:1"
       id="path849" />
    <path
       d="m 57.476665,337.858 a 11.338585,11.338585 0 1 0 -22.67717,0 11.338585,11.338585 0 1 0 22.67717,0 z"
       style="fill:none;stroke:#ff0000;stroke-width:0.377953;stroke-miterlimit:4;stroke-dasharray:none;stroke-opacity:1"
       id="path851" />
    <path
       d="m 187.91493,40.687301 a 9.44882,9.44882 0 1 0 -18.89764,0 9.44882,9.44882 0 1 0 18.89764,0 z"
       style="fill:none;stroke:#ff0000;stroke-width:0.377953;stroke-miterlimit:4;stroke-dasharray:none;stroke-opacity:1"
       id="path853" />
    <path
       d="m 57.476665,413.4485 a 11.338585,11.338585 0 1 0 -22.67717,0 11.338585,11.338585 0 1 0 22.67717,0 z"
       style="fill:none;stroke:#ff0000;stroke-width:0.377953;stroke-miterlimit:4;stroke-dasharray:none;stroke-opacity:1"
       id="path855" />
    <path
       d="m 91.492411,256.1204 a 9.448819,9.448819 0 1 0 -18.897636,0 9.448819,9.448819 0 1 0 18.897636,0 z"
       style="fill:none;stroke:#ff0000;stroke-width:0.377953;stroke-miterlimit:4;stroke-dasharray:none;stroke-opacity:1"
       id="path857" />
    <path
       d="m 285.09421,256.1204 a 9.448819,9.448819 0 1 0 -18.89763,0 9.448819,9.448819 0 1 0 18.89763,0 z"
       style="fill:none;stroke:#ff0000;stroke-width:0.377953;stroke-miterlimit:4;stroke-dasharray:none;stroke-opacity:1"
       id="path859" />
    <path
       d="m 242.86249,224.4721 a 5.85827,5.85827 0 1 0 -11.71654,0 5.85827,5.85827 0 1 0 11.71654,0 z"
       style="fill:none;stroke:#ff0000;stroke-width:0.377953;stroke-miterlimit:4;stroke-dasharray:none;stroke-opacity:1"
       id="path861" />
    <path
       d="m 125.69714,341.6375 a 5.85827,5.85827 0 1 0 -11.71654,0 5.85827,5.85827 0 1 0 11.71654,0 z"
       style="fill:none;stroke:#ff0000;stroke-width:0.377953;stroke-miterlimit:4;stroke-dasharray:none;stroke-opacity:1"
       id="path863" />
    <path
       d="m 125.69714,224.4721 a 5.85827,5.85827 0 1 0 -11.71654,0 5.85827,5.85827 0 1 0 11.71654,0 z"
       style="fill:none;stroke:#ff0000;stroke-width:0.377953;stroke-miterlimit:4;stroke-dasharray:none;stroke-opacity:1"
       id="path865" />
    <path
       d="m 242.86249,341.6375 a 5.85827,5.85827 0 1 0 -11.71654,0 5.85827,5.85827 0 1 0 11.71654,0 z"
       style="fill:none;stroke:#ff0000;stroke-width:0.377953;stroke-miterlimit:4;stroke-dasharray:none;stroke-opacity:1"
       id="path867" />
    <path
       d="m 220.94123,283.0548 a 42.519685,42.519685 0 1 0 -85.03937,0 42.519685,42.519685 0 1 0 85.03937,0 z"
       style="fill:none;stroke:#ff0000;stroke-width:0.377953;stroke-miterlimit:4;stroke-dasharray:none;stroke-opacity:1"
       id="path869" />
  </g>
  <desc
     id="desc873">flasque moteur laser.dxf - scale = 1.000000, origin = (0.000000, 0.000000), method = manual</desc>
</svg>
